<?xml version="1.0" encoding="UTF-8" standalone="no"?>
<!-- Created with Inkscape (http://www.inkscape.org/) -->

<svg
   xmlns:dc="http://purl.org/dc/elements/1.1/"
   xmlns:cc="http://creativecommons.org/ns#"
   xmlns:rdf="http://www.w3.org/1999/02/22-rdf-syntax-ns#"
   xmlns:svg="http://www.w3.org/2000/svg"
   xmlns="http://www.w3.org/2000/svg"
   xmlns:sodipodi="http://sodipodi.sourceforge.net/DTD/sodipodi-0.dtd"
   xmlns:inkscape="http://www.inkscape.org/namespaces/inkscape"
   width="1920px"
   height="400px"
   viewBox="0 0 1920 400"
   version="1.1"
   id="SVGRoot"
   inkscape:version="0.92.4 (5da689c313, 2019-01-14)"
   sodipodi:docname="banner.svg">
  <defs
     id="defs3798" />
  <sodipodi:namedview
     id="base"
     pagecolor="#ffffff"
     bordercolor="#666666"
     borderopacity="1.0"
     inkscape:pageopacity="0.0"
     inkscape:pageshadow="2"
     inkscape:zoom="0.7"
     inkscape:cx="918.48594"
     inkscape:cy="390.24074"
     inkscape:document-units="px"
     inkscape:current-layer="layer1"
     showgrid="false"
     inkscape:window-width="1920"
     inkscape:window-height="1017"
     inkscape:window-x="-8"
     inkscape:window-y="-8"
     inkscape:window-maximized="1"
     showguides="true"
     inkscape:guide-bbox="true">
    <sodipodi:guide
       position="2060.7112,1062.6805"
       orientation="0,1"
       id="guide4018"
       inkscape:locked="false" />
  </sodipodi:namedview>
  <metadata
     id="metadata3801">
    <rdf:RDF>
      <cc:Work
         rdf:about="">
        <dc:format>image/svg+xml</dc:format>
        <dc:type
           rdf:resource="http://purl.org/dc/dcmitype/StillImage" />
        <dc:title></dc:title>
      </cc:Work>
    </rdf:RDF>
  </metadata>
  <g
     inkscape:label="Layer 1"
     inkscape:groupmode="layer"
     id="layer1">
    <path
       id="text3813"
       style="font-style:normal;font-variant:normal;font-weight:normal;font-stretch:normal;font-size:338.77383423px;line-height:1.25;font-family:'Futura Md BT';-inkscape-font-specification:'Futura Md BT';letter-spacing:0px;word-spacing:0px;fill:#000000;fill-opacity:1;stroke:none;stroke-width:1.76444709"
       d="M 241.18164,34.914062 V 291.31055 h 35.89453 V 34.914062 Z m 808.55666,9.427735 c -6.1756,0 -11.5235,2.20607 -16.0449,6.617187 -4.4112,4.411118 -6.6172,9.649557 -6.6172,15.714844 0,6.175565 2.206,11.523526 6.6172,16.044922 4.5214,4.411118 9.8693,6.617188 16.0449,6.617188 6.2858,0 11.58,-2.150333 15.8808,-6.451172 4.3009,-4.411118 6.4512,-9.814817 6.4512,-16.210938 0,-6.39612 -2.1503,-11.688344 -6.4512,-15.878906 -4.1905,-4.30084 -9.4847,-6.453125 -15.8808,-6.453125 z m 571.5156,84.363283 c -18.0856,0 -32.6421,4.3564 -43.6699,13.06836 -10.9175,8.71195 -16.377,20.07087 -16.377,34.07617 0,10.25585 3.3091,18.96669 9.9258,26.13477 6.727,7.16804 18.4721,14.22631 35.2344,21.17382 2.9775,1.32334 7.2224,2.97789 12.7363,4.96289 16.3212,6.06529 24.4824,13.34259 24.4824,21.83399 0,6.39612 -2.3156,11.4693 -6.9472,15.21875 -4.5214,3.63917 -10.8071,5.45898 -18.8575,5.45898 -9.3734,0 -17.0391,-2.04081 -22.9941,-6.12109 -5.955,-4.08029 -10.0347,-10.03355 -12.2402,-17.86328 l -29.7754,16.21094 c 5.7344,11.79973 13.6747,20.56632 23.8203,26.30078 10.1456,5.73445 22.8823,8.60156 38.2109,8.60156 19.9603,0 35.62,-4.41214 46.9785,-13.23438 11.3587,-8.93251 17.0372,-21.22725 17.0372,-36.88672 0,-10.80723 -3.1419,-19.79482 -9.4278,-26.96289 -6.1755,-7.27834 -16.4872,-13.78507 -30.9336,-19.51953 -3.198,-1.32333 -7.7197,-3.03362 -13.5644,-5.1289 -18.5267,-6.72696 -27.7891,-14.16951 -27.7891,-22.33008 0,-5.40362 2.0408,-9.7043 6.1211,-12.90234 4.1906,-3.30834 9.7038,-4.9629 16.541,-4.9629 6.1756,0 11.5793,1.4893 16.211,4.4668 4.7419,2.86723 8.0491,6.78163 9.9238,11.74414 l 25.4746,-17.53515 c -3.97,-8.27085 -10.3115,-14.61037 -19.0234,-19.02149 -8.6017,-4.52139 -18.9671,-6.7832 -31.0977,-6.7832 z m -896.39452,0.33203 c -12.79225,0 -23.81869,2.69992 -33.08204,8.10351 -9.15307,5.40362 -15.82506,13.06913 -20.01562,22.99415 v -25.64063 h -35.89649 v 230.5918 h 35.89649 v -94.1211 c 6.39612,9.04279 13.83868,15.76857 22.33008,20.17969 8.60168,4.41112 18.41752,6.61719 29.44531,6.61719 22.16587,0 39.58952,-7.55403 52.27148,-22.66211 12.79224,-15.21836 19.1875,-36.00685 19.1875,-62.36328 0,-25.03309 -6.50673,-45.21238 -19.51953,-60.54102 -12.90252,-15.43891 -29.77467,-23.1582 -50.61718,-23.1582 z m 197.17773,0 c -12.79224,0 -23.82063,2.69992 -33.08399,8.10351 -9.15305,5.40362 -15.82506,13.06913 -20.01562,22.99415 v -25.64063 h -35.89453 v 230.5918 h 35.89453 v -94.1211 c 6.39612,9.04279 13.84063,15.76857 22.33203,20.17969 8.60168,4.41112 18.41557,6.61719 29.44336,6.61719 22.16587,0 39.58951,-7.55403 52.27149,-22.66211 12.79223,-15.21836 19.18945,-36.00685 19.18945,-62.36328 0,-25.03309 -6.50674,-45.21238 -19.51953,-60.54102 -12.90252,-15.43891 -29.77466,-23.1582 -50.61719,-23.1582 z m 291.29879,0 c -13.895,0 -25.6939,2.48085 -35.3984,7.44336 -9.7045,4.96251 -18.1405,12.84706 -25.3086,23.6543 v -25.64063 h -33.7461 v 156.81641 h 35.8965 v -71.46094 c 0,-12.90252 0.4958,-22.27636 1.4883,-28.12109 1.1028,-5.95501 2.9764,-10.8072 5.623,-14.55664 3.7495,-5.62418 8.8784,-9.97863 15.3848,-13.06641 6.6167,-3.08778 14.115,-4.63281 22.4961,-4.63281 12.7922,0 21.6703,3.41862 26.6328,10.25586 5.0728,6.72695 7.6094,20.40146 7.6094,41.02343 v 80.5586 h 36.2265 v -95.11524 c 0,-14.33613 -0.6072,-24.37101 -1.8203,-30.10547 -1.213,-5.73445 -3.1981,-10.75189 -5.9551,-15.05273 -4.6316,-7.27834 -11.0826,-12.73778 -19.3535,-16.37695 -8.1605,-3.74945 -18.0859,-5.62305 -29.7754,-5.62305 z m 163.5977,0 c -20.9528,0 -37.9364,7.71929 -50.9492,23.1582 -13.0128,15.32864 -19.5196,35.50793 -19.5196,60.54102 0,26.35643 6.3415,47.14492 19.0235,62.36328 12.7922,15.10808 30.2716,22.66211 52.4375,22.66211 11.0278,0 20.7879,-2.20607 29.2793,-6.61719 8.6017,-4.41112 16.1,-11.1369 22.4961,-20.17969 l -0.3301,20.8418 c -0.1103,15.76975 -3.5289,27.01719 -10.2559,33.74414 -6.7269,6.72696 -17.7553,10.0918 -33.084,10.0918 -10.3659,0 -18.4159,-1.76603 -24.1503,-5.29492 -5.7345,-3.5289 -8.8783,-8.65586 -9.4297,-15.38282 l -38.541,0.16602 c 0.2205,15.10808 6.7809,27.18377 19.6836,36.22656 12.9023,9.15307 30.1609,13.72852 51.7753,13.72852 29.0031,0 49.6264,-6.28574 61.8672,-18.85742 12.2409,-12.46141 18.3614,-34.02047 18.3614,-64.67774 V 134.49414 h -35.8965 v 25.64063 c -4.1906,-10.0353 -10.8626,-17.7008 -20.0157,-22.99415 -9.0427,-5.4036 -19.9597,-8.10351 -32.7519,-8.10351 z m -345.0606,5.45703 v 156.81641 h 35.8965 V 134.49414 Z m -318.09566,26.4668 c 13.56419,0 24.20633,4.68692 31.92578,14.06054 7.82975,9.26335 11.74415,22.1673 11.74415,38.70899 0,16.65197 -3.74915,29.49822 -11.24805,38.54101 -7.38862,9.0428 -17.8655,13.56446 -31.42969,13.56446 -13.23335,0 -23.93123,-4.85218 -32.0918,-14.55664 -8.05029,-9.70446 -12.07421,-22.66219 -12.07421,-38.87305 0,-16.21086 3.80488,-28.83807 11.41406,-37.88086 7.60918,-9.04279 18.19558,-13.56445 31.75976,-13.56445 z m 197.17578,0 c 13.56421,0 24.20633,4.68692 31.92579,14.06054 7.82973,9.26335 11.74414,22.1673 11.74414,38.70899 0,16.65197 -3.74915,29.49822 -11.24805,38.54101 -7.38862,9.0428 -17.86355,13.56446 -31.42773,13.56446 -13.23336,0 -23.93123,-4.85218 -32.0918,-14.55664 -8.05029,-9.70446 -12.07617,-22.66219 -12.07617,-38.87305 0,-16.21086 3.80488,-28.83807 11.41406,-37.88086 7.60918,-9.04279 18.19558,-13.56445 31.75976,-13.56445 z m 476.73238,0 c 13.5642,0 24.0949,4.52166 31.5938,13.56445 7.6092,9.04279 11.4141,21.67 11.4141,37.88086 0,15.9903 -4.0797,28.89229 -12.2403,38.70703 -8.0503,9.81474 -18.5271,14.72266 -31.4297,14.72266 -13.6744,0 -24.2608,-4.52166 -31.7597,-13.56446 -7.4989,-9.04279 -11.2481,-21.88904 -11.2481,-38.54101 0,-16.54169 3.8586,-29.44564 11.5782,-38.70899 7.8297,-9.37362 18.5276,-14.06054 32.0917,-14.06054 z" />
    <g
       id="g3988"
       transform="matrix(0.26249457,0,0,0.26249457,294.81784,16.540312)">
      <g
         id="layer101"
         style="fill:#3b0904;stroke:none">
        <path
           id="path3884"
           d="m 330,1270 c 16,-10 -37,-23 -53,-14 -7,4 -9,3 -4,-1 8,-9 -174,-115 -198,-115 -8,0 -15,-5 -15,-11 0,-5 5,-7 12,-3 7,4 8,3 4,-5 -4,-6 -11,-9 -16,-6 -5,3 -20,-20 -35,-51 -21,-44 -24,-58 -14,-70 8,-10 8,-14 0,-14 -6,0 -11,-7 -11,-15 0,-8 4,-15 9,-15 4,0 5,-21 1,-47 -13,-78 -12,-323 0,-323 7,0 8,-6 0,-19 -7,-14 -6,-31 5,-62 18,-51 60,-125 77,-135 7,-5 8,-3 3,7 -8,12 -6,12 8,0 18,-15 23,-26 7,-16 -6,3 -10,2 -10,-2 0,-13 115,-124 122,-118 3,3 18,-8 34,-26 61,-67 286,-151 464,-174 30,-4 66,-14 79,-22 18,-12 42,-14 95,-11 69,5 95,15 152,57 11,9 5,1 -15,-17 -19,-17 -31,-32 -28,-32 17,0 87,74 87,92 0,12 -4,17 -12,12 -8,-4 -10,-3 -5,2 5,5 12,9 15,10 36,3 74,20 98,45 35,37 45,125 16,148 -16,13 -16,13 1,8 20,-7 20,-7 7,27 -6,18 -6,26 1,26 11,0 6,227 -9,322 -4,31 -4,54 0,52 4,-3 9,-26 10,-52 1,-44 2,-45 5,-9 6,53 -17,125 -81,252 -55,110 -85,155 -105,155 -5,0 -13,5 -17,12 -5,7 -2,9 7,4 8,-4 5,0 -5,8 -11,9 -16,16 -10,16 24,1 -162,95 -236,120 -56,19 -82,21 -257,19 -107,-1 -189,-5 -183,-9 z M 175,290 c 27,-27 47,-50 44,-50 -3,0 -27,23 -54,50 -27,28 -47,50 -44,50 3,0 27,-22 54,-50 z M 1185,180 c -18,-17 -44,-32 -65,-35 l -35,-5 36,11 c 21,6 47,21 60,35 12,13 25,24 28,24 3,0 -8,-13 -24,-30 z M 436,123 c -5,-5 -136,54 -136,61 0,2 31,-10 70,-27 38,-17 68,-32 66,-34 z M 643,70 c 54,-11 109,-20 122,-20 13,0 26,-4 29,-8 7,-11 -142,11 -224,33 -36,10 -75,20 -88,22 -12,3 -25,9 -28,14 -2,4 17,1 43,-7 26,-8 92,-24 146,-34 z"
           inkscape:connector-curvature="0" />
        <path
           id="path3886"
           d="m 801,1265 c 4,-3 42,-23 86,-44 45,-22 84,-44 87,-50 4,-6 13,-11 19,-11 7,0 3,8 -8,16 -34,27 -203,109 -184,89 z"
           inkscape:connector-curvature="0" />
        <path
           id="path3888"
           d="m 153,1197 c -40,-23 -71,-43 -69,-45 5,-4 135,68 142,79 7,12 10,13 -73,-34 z"
           inkscape:connector-curvature="0" />
      </g>
      <g
         id="layer102"
         style="fill:#694e3a;stroke:none">
        <path
           id="path3891"
           d="m 410,1273 c -14,-2 -54,-14 -90,-26 -36,-11 -67,-21 -70,-22 -21,-1 -120,-63 -120,-74 0,-19 -49,-83 -60,-76 -7,5 -27,-30 -48,-86 -6,-14 -7,-43 -2,-67 4,-23 4,-44 0,-47 -4,-2 -5,-16 -2,-30 2,-15 0,-25 -7,-25 -17,0 -14,-165 4,-235 9,-33 27,-83 40,-112 13,-28 21,-54 17,-57 -3,-3 0,-6 6,-6 7,0 12,-6 12,-14 0,-8 7,-16 15,-20 8,-3 15,-11 16,-18 0,-7 34,-42 75,-78 41,-36 81,-71 90,-79 23,-21 191,-91 217,-91 13,0 28,-5 33,-10 6,-6 26,-12 45,-14 91,-10 196,-28 214,-38 18,-10 18,-9 7,5 -14,17 -11,19 55,32 53,11 141,64 199,120 30,29 54,51 54,48 0,-18 45,38 61,75 22,51 24,79 7,96 -14,13 -15,117 -3,195 5,31 10,39 16,30 7,-10 8,-6 5,11 -3,14 -7,48 -11,77 -6,55 -76,225 -128,311 -17,29 -47,62 -65,72 -18,11 -36,30 -41,42 -5,13 -11,22 -15,20 -3,-1 -39,13 -79,32 -108,52 -174,66 -307,65 -63,-1 -126,-4 -140,-6 z m 245,-128 c 97,-21 177,-63 265,-140 C 1041,899 1054,860 1026,690 1003,553 979,501 894,411 808,320 753,288 640,264 485,231 298,278 189,377 146,416 85,517 76,565 c -4,17 -3,23 0,15 38,-90 45,-104 53,-91 5,7 2,37 -7,70 -8,31 -15,92 -14,136 2,190 103,348 267,420 97,43 177,52 280,30 z m 517,-762 c -5,-10 -8,-23 -5,-29 2,-6 -6,-19 -18,-30 -13,-10 -20,-14 -16,-8 3,6 8,23 11,38 5,28 25,60 33,52 3,-2 0,-13 -5,-23 z"
           inkscape:connector-curvature="0" />
        <path
           id="path3893"
           d="m 1212,550 c 0,-19 2,-27 5,-17 2,9 2,25 0,35 -3,9 -5,1 -5,-18 z"
           inkscape:connector-curvature="0" />
        <path
           id="path3895"
           d="m 1134,250 c -12,-5 -25,-13 -28,-18 -9,-14 42,-1 55,14 13,16 4,17 -27,4 z"
           inkscape:connector-curvature="0" />
        <path
           id="path3897"
           d="m 936,94 c -3,-8 -9,-13 -14,-10 -4,2 -13,-4 -20,-15 -14,-22 -12,-23 23,-7 14,6 25,19 25,30 0,22 -6,23 -14,2 z"
           inkscape:connector-curvature="0" />
      </g>
      <g
         id="layer103"
         style="fill:#843c31;stroke:none">
        <path
           id="path3900"
           d="m 410,1273 c -51,-8 -127,-37 -200,-76 -78,-41 -99,-55 -65,-43 11,4 -4,-18 -35,-52 -30,-32 -59,-56 -65,-53 -5,2 -7,1 -3,-4 4,-4 1,-16 -6,-27 -8,-11 -11,-29 -8,-40 3,-13 1,-19 -5,-15 -7,4 -7,-9 -1,-41 5,-26 6,-65 3,-87 C 15,759 7,665 8,630 10,580 63,445 106,383 153,314 253,222 315,188 426,129 739,44 748,71 c 2,5 18,9 35,9 87,0 198,53 271,130 48,51 54,62 74,145 15,60 22,122 22,184 0,76 3,96 17,106 27,20 21,116 -12,198 -15,37 -31,67 -37,67 -13,0 -47,79 -50,117 -1,7 -8,15 -15,17 -8,3 -11,10 -8,16 3,5 1,10 -4,10 -6,0 -11,8 -11,17 0,9 -3,13 -7,10 -3,-4 -15,1 -26,10 -11,10 -17,12 -13,6 10,-18 3,-16 -21,5 -11,9 -34,28 -51,41 -18,13 -29,29 -25,35 3,6 3,8 -1,4 -5,-4 -17,1 -28,11 -24,23 -142,63 -163,55 -8,-3 -15,-1 -15,5 0,11 -211,14 -270,4 z m 412,-79 c 57,-36 54,-46 -4,-16 -29,15 -66,33 -83,39 -29,11 -29,12 10,6 22,-3 56,-16 77,-29 z m -94,-68 c 84,-34 123,-58 206,-133 94,-85 111,-117 108,-211 -2,-82 -31,-212 -61,-269 C 953,459 859,358 801,321 664,233 455,226 295,304 c -97,48 -138,88 -183,176 -23,46 -42,90 -41,99 0,9 9,-8 20,-36 23,-59 44,-71 36,-20 -2,17 -11,69 -18,113 -10,68 -10,94 1,153 33,177 178,323 355,361 70,15 194,4 263,-24 z M 845,270 c -10,-16 -135,-77 -135,-65 0,2 19,13 43,23 23,11 51,27 62,36 23,18 39,21 30,6 z"
           inkscape:connector-curvature="0" />
      </g>
      <g
         id="layer104"
         style="fill:#a86950;stroke:none">
        <path
           id="path3903"
           d="m 410,1273 c -51,-8 -127,-37 -200,-76 -78,-41 -99,-55 -65,-43 11,4 -4,-18 -35,-52 -30,-32 -59,-56 -65,-53 -5,2 -7,1 -3,-4 4,-4 1,-16 -6,-27 -8,-11 -11,-29 -8,-40 3,-13 1,-19 -5,-15 -7,4 -7,-9 -1,-41 5,-26 6,-65 3,-87 C 15,759 7,665 8,630 10,580 63,445 106,383 153,314 253,222 315,188 426,129 739,44 748,71 c 2,5 18,9 35,9 87,0 182,45 263,125 59,58 62,63 83,150 14,59 21,123 21,186 0,80 3,98 16,103 11,4 14,13 10,31 -4,15 -2,25 5,25 16,0 2,72 -28,147 -14,35 -29,61 -33,58 -10,-6 -49,84 -52,122 -1,7 -8,15 -15,17 -8,3 -11,10 -8,16 3,5 1,10 -4,10 -6,0 -11,8 -11,17 0,9 -3,13 -7,10 -3,-4 -15,1 -26,10 -11,10 -17,12 -13,6 10,-18 3,-16 -21,5 -11,9 -34,28 -51,41 -18,13 -29,29 -25,35 3,6 3,8 -1,4 -5,-4 -17,1 -28,11 -24,23 -142,63 -163,55 -8,-3 -15,-1 -15,5 0,11 -211,14 -270,4 z m 412,-79 c 57,-36 54,-46 -4,-16 -29,15 -66,33 -83,39 -29,11 -29,12 10,6 22,-3 56,-16 77,-29 z m -139,-49 c 80,-21 140,-53 229,-125 62,-49 83,-74 108,-124 30,-61 31,-63 21,-146 C 1021,579 992,509 906,414 803,300 689,250 535,250 407,250 292,290 192,369 136,414 71,531 64,601 l -4,44 17,-47 c 10,-26 21,-50 25,-54 4,-3 5,47 1,112 -5,105 -3,126 16,182 68,198 231,320 431,321 42,1 102,-6 133,-14 z M 245,304 c 41,-38 44,-43 17,-27 -35,19 -92,73 -76,73 5,-1 32,-21 59,-46 z m 615,-23 c 0,-12 -137,-81 -159,-80 -9,0 5,8 30,19 25,10 63,30 84,44 42,29 45,30 45,17 z"
           inkscape:connector-curvature="0" />
      </g>
      <g
         id="layer105"
         style="fill:#817686;stroke:none">
        <path
           id="path3906"
           d="m 410,1273 c -51,-8 -127,-37 -200,-76 -77,-41 -99,-55 -67,-44 10,4 -5,-20 -34,-53 -28,-33 -56,-57 -62,-53 -6,3 -7,1 -3,-6 4,-6 0,-18 -9,-27 -12,-12 -13,-19 -4,-30 10,-12 6,-18 -12,-16 -3,1 -2,-20 4,-46 5,-26 8,-72 7,-102 -2,-30 -4,-78 -4,-107 0,-28 -4,-47 -7,-41 -3,5 -9,-1 -12,-13 -3,-13 -1,-29 4,-36 6,-6 8,-16 5,-21 -13,-21 82,-232 104,-232 6,0 10,-7 10,-16 0,-8 4,-13 9,-9 5,3 12,-3 16,-14 8,-26 91,-102 149,-136 59,-34 154,-67 169,-58 6,3 7,1 3,-5 -5,-8 1,-12 14,-12 12,0 18,5 15,10 -4,6 17,10 57,9 44,0 57,-3 43,-9 -19,-8 -19,-9 2,-9 12,-1 27,7 32,17 7,12 10,13 11,3 0,-11 4,-10 19,3 11,10 30,16 43,14 21,-3 19,-5 -15,-21 -49,-24 -140,-39 -134,-23 3,7 -4,13 -14,13 -10,1 -19,-2 -19,-7 0,-15 31,-27 105,-39 39,-7 81,-14 95,-17 17,-3 21,-2 12,4 -9,6 7,11 47,15 33,4 83,15 111,26 65,25 153,91 184,139 32,50 55,162 61,302 4,103 6,115 22,111 17,-3 17,-2 0,16 -11,12 -17,34 -16,59 2,39 2,39 8,7 4,-22 10,-30 18,-25 9,5 9,19 3,48 -11,47 -46,134 -55,134 -4,0 -3,-4 0,-10 3,-5 2,-10 -3,-10 -10,0 -58,109 -56,127 1,7 -2,10 -7,7 -5,-3 -9,-1 -9,5 0,5 3,11 8,14 4,2 2,3 -5,1 -6,-1 -19,7 -30,18 -23,26 -102,72 -110,65 -3,-4 -20,4 -37,17 -43,33 -130,75 -189,93 -63,18 -57,24 11,11 34,-7 60,-7 74,-1 l 22,10 -22,5 c -14,4 -20,2 -15,-5 4,-7 0,-8 -11,-4 -10,4 -31,7 -48,7 -23,0 -29,4 -24,15 5,13 -12,15 -117,14 -67,-1 -133,-4 -147,-6 z m 260,-114 c 59,-13 161,-65 233,-119 101,-76 167,-189 175,-300 5,-74 -12,-180 -31,-192 -6,-4 -8,-8 -3,-8 5,0 2,-8 -6,-17 -9,-10 -19,-28 -22,-40 -4,-11 -13,-27 -21,-33 -9,-8 -4,19 16,77 35,100 51,191 38,213 -6,11 -8,7 -9,-15 0,-41 -36,-168 -61,-216 C 950,452 839,338 782,307 712,269 628,250 530,250 c -99,0 -164,17 -263,67 -80,40 -81,31 -3,-21 89,-59 158,-80 261,-80 61,1 79,-1 55,-6 -33,-7 -32,-7 15,-9 34,-1 60,5 83,19 18,11 37,18 43,15 5,-4 9,-2 9,4 0,14 58,43 71,36 5,-4 8,-1 7,7 -2,7 4,13 12,14 30,1 55,14 69,36 l 14,23 -24,-20 c -13,-11 -4,2 21,28 42,44 67,65 40,32 -7,-8 -9,-15 -5,-15 4,0 0,-11 -9,-25 -19,-29 -20,-39 -4,-29 7,4 8,3 4,-5 C 915,304 811,237 765,217 688,184 548,158 510,169 c -19,5 -64,17 -100,26 -36,9 -93,31 -127,50 -33,18 -64,31 -68,27 -3,-3 -3,2 1,12 4,11 3,17 -2,14 -8,-5 -57,36 -53,44 3,7 -37,68 -43,68 -5,0 -8,9 -8,19 0,11 -4,23 -10,26 -15,9 -50,133 -50,177 0,27 6,46 18,55 9,8 11,12 5,8 -7,-3 -13,-1 -13,4 0,6 3,11 8,11 4,0 7,24 8,52 1,29 6,54 12,56 6,2 9,9 6,17 -3,7 -1,16 5,20 6,3 11,14 11,24 0,22 80,135 118,169 56,48 157,100 227,115 39,9 171,6 215,-4 z M 969,313 c -41,-43 -53,-60 -34,-48 27,17 29,17 16,1 -17,-20 -71,-50 -78,-43 -5,6 150,164 156,159 3,-1 -24,-32 -60,-69 z"
           inkscape:connector-curvature="0" />
      </g>
      <g
         id="layer106"
         style="fill:#b38e73;stroke:none">
        <path
           id="path3909"
           d="m 410,1273 c -46,-8 -94,-25 -165,-60 -55,-27 -83,-50 -129,-104 -32,-38 -62,-66 -67,-63 -5,3 -6,-2 -3,-10 3,-9 1,-16 -5,-16 -6,0 -11,-12 -11,-27 -1,-93 -2,-221 -4,-280 0,-30 -4,-47 -9,-40 -15,22 2,-98 22,-157 24,-68 67,-146 81,-146 6,0 10,-7 10,-16 0,-8 4,-13 9,-9 5,3 12,-3 16,-14 8,-26 90,-102 146,-134 57,-33 158,-69 172,-60 6,3 7,1 3,-5 -5,-8 1,-12 14,-12 12,0 18,5 15,10 -4,6 17,10 57,9 44,0 57,-3 43,-9 -19,-8 -19,-9 2,-9 12,-1 27,7 32,17 7,12 10,13 11,3 0,-11 4,-10 19,3 11,10 30,16 43,14 21,-3 19,-5 -15,-21 -49,-24 -140,-39 -134,-23 3,7 -4,13 -14,13 -10,1 -19,-2 -19,-7 0,-15 31,-27 105,-39 39,-7 78,-14 88,-16 9,-2 15,0 12,5 -2,4 22,10 55,13 114,12 242,84 294,165 32,50 55,162 61,302 4,103 6,115 22,111 17,-3 17,-2 0,16 -11,12 -17,34 -16,59 2,39 2,39 8,7 4,-22 10,-30 18,-25 9,5 9,19 3,48 -11,47 -46,134 -55,134 -4,0 -3,-4 0,-10 3,-5 2,-10 -3,-10 -10,0 -58,109 -56,127 1,7 -3,10 -9,6 -6,-4 -8,0 -4,11 4,9 3,15 -2,12 -4,-3 -17,4 -27,15 -24,27 -103,73 -111,66 -3,-4 -20,4 -37,17 -43,33 -130,75 -189,93 -63,18 -57,24 11,11 34,-7 60,-7 74,-1 l 22,10 -22,5 c -14,4 -20,2 -15,-5 4,-7 0,-8 -11,-4 -10,4 -31,7 -47,7 -19,0 -29,5 -29,15 0,13 -19,15 -117,14 -65,-1 -129,-4 -143,-6 z m 260,-114 c 59,-13 161,-65 233,-119 101,-76 167,-189 175,-300 5,-74 -12,-180 -31,-192 -6,-4 -8,-8 -3,-8 5,0 2,-8 -6,-17 -9,-10 -19,-28 -22,-40 -4,-11 -13,-27 -21,-33 -9,-8 -4,19 16,77 35,100 51,191 38,213 -6,11 -8,7 -9,-15 0,-41 -36,-168 -61,-216 C 950,452 839,338 782,307 712,269 628,250 530,250 c -99,0 -164,17 -263,67 -80,40 -81,31 -3,-21 89,-59 158,-80 261,-80 61,1 79,-1 55,-6 -33,-7 -32,-7 15,-9 34,-1 60,5 83,19 18,11 37,18 43,15 5,-4 9,-2 9,4 0,14 58,43 71,36 5,-4 8,-1 7,7 -2,7 4,13 12,14 30,1 55,14 69,36 l 14,23 -24,-20 c -13,-11 -4,2 21,28 42,44 67,65 40,32 -7,-8 -9,-15 -5,-15 4,0 0,-11 -9,-25 -19,-29 -20,-39 -4,-29 7,4 8,3 4,-5 C 915,304 811,237 765,217 688,184 548,158 510,169 c -19,5 -64,17 -100,26 -36,9 -93,31 -127,50 -33,18 -64,31 -68,27 -3,-3 -3,2 1,12 4,11 3,17 -2,14 -8,-5 -57,36 -53,44 3,7 -37,68 -43,68 -5,0 -8,9 -8,19 0,11 -4,23 -10,26 -15,9 -50,133 -50,177 0,27 6,46 18,55 9,8 11,12 5,8 -7,-3 -13,-1 -13,4 0,6 3,11 8,11 4,0 7,24 8,52 1,29 6,54 12,56 6,2 9,9 6,17 -3,7 -1,16 5,20 6,3 11,14 11,24 0,22 80,135 118,169 56,48 157,100 227,115 39,9 171,6 215,-4 z M 969,313 c -41,-43 -53,-60 -34,-48 27,17 29,17 16,1 -17,-20 -71,-50 -78,-43 -5,6 150,164 156,159 3,-1 -24,-32 -60,-69 z"
           inkscape:connector-curvature="0" />
      </g>
      <g
         id="layer107"
         style="fill:#dba184;stroke:none">
        <path
           id="path3912"
           d="m 400,1271 c -19,-4 -69,-20 -110,-36 -60,-24 -87,-42 -136,-91 C 37,1026 43,1044 33,812 29,700 28,606 33,603 c 4,-2 2,-13 -4,-25 -8,-15 -8,-19 0,-14 7,4 11,-1 11,-13 0,-27 41,-131 51,-131 5,0 9,-7 9,-15 0,-8 4,-15 9,-15 5,0 12,-9 16,-19 3,-11 13,-22 22,-25 13,-5 13,-2 -3,21 -74,113 -119,295 -81,335 6,7 13,35 14,63 1,27 6,51 12,53 5,2 8,9 5,17 -3,7 -1,16 5,20 6,3 11,14 11,24 0,22 80,135 118,169 89,77 181,113 307,119 85,4 110,2 165,-17 114,-38 249,-130 298,-203 71,-106 77,-124 77,-242 -1,-83 -5,-119 -18,-145 -47,-96 -80,-149 -89,-144 -7,4 -6,9 1,13 19,12 81,217 80,263 -2,33 -3,36 -6,13 -2,-16 -15,-67 -29,-112 C 969,442 843,313 697,268 561,226 399,242 271,311 c -51,27 -53,27 -32,5 56,-59 203,-108 309,-101 50,3 58,2 32,-4 l -35,-8 46,-2 c 36,-1 63,8 125,40 44,23 84,46 91,51 7,5 16,7 22,4 11,-7 73,43 66,53 -2,5 10,21 27,37 18,16 26,21 19,12 -11,-15 -11,-18 0,-18 8,0 4,-9 -9,-23 -24,-25 -29,-43 -10,-31 7,4 8,3 4,-5 C 916,306 814,239 770,219 751,210 691,193 636,180 559,163 533,160 513,169 c -13,6 -32,11 -42,11 -38,0 -147,40 -205,75 -32,19 -61,35 -63,35 -3,0 15,-18 39,-41 45,-42 105,-77 173,-100 40,-13 227,-20 219,-8 -3,6 54,19 85,19 10,0 11,-3 2,-14 -10,-12 -31,-19 -126,-42 -29,-7 -29,-8 15,-15 107,-18 246,-3 320,36 66,34 130,87 155,129 32,55 52,178 55,329 0,67 5,138 10,157 l 8,35 1,-33 c 1,-19 5,-31 11,-27 11,7 9,75 -2,75 -4,0 -6,8 -6,18 1,24 -20,72 -31,72 -5,0 -12,-6 -14,-12 -3,-8 -6,-5 -6,5 -1,10 -5,15 -11,12 -5,-3 -7,0 -4,9 7,20 -33,109 -46,101 -6,-4 -7,1 -3,11 5,14 3,16 -11,11 -10,-4 -15,-3 -11,3 3,6 1,10 -6,10 -7,0 -9,3 -6,7 6,6 -38,43 -77,65 -14,8 -17,7 -10,-4 4,-7 -10,1 -31,18 -54,42 -175,104 -219,111 -34,5 -51,23 -23,23 8,0 14,7 14,15 0,13 -19,15 -116,14 -64,-1 -132,-4 -151,-8 z m 652,-885 c 7,4 8,2 4,-5 -4,-6 -11,-9 -15,-7 -4,3 -34,-22 -67,-56 -56,-57 -50,-68 9,-13 15,14 27,22 27,17 0,-23 -133,-122 -146,-109 -3,3 35,45 83,93 48,49 90,86 91,82 2,-5 9,-5 14,-2 z"
           inkscape:connector-curvature="0" />
        <path
           id="path3914"
           d="m 700,1240 c 14,-4 34,-8 45,-9 16,-1 17,1 5,9 -8,5 -28,9 -45,9 -29,-1 -29,-1 -5,-9 z"
           inkscape:connector-curvature="0" />
      </g>
      <g
         id="layer108"
         style="fill:#f6d3b0;stroke:none">
        <path
           id="path3917"
           d="m 410,1273 c -14,-2 -62,-18 -108,-35 -70,-26 -91,-40 -143,-93 -60,-62 -69,-74 -105,-130 -18,-30 -18,-30 1,-15 19,15 19,15 2,-13 -20,-32 -21,-148 -1,-140 7,3 10,-6 7,-24 -2,-15 9,2 25,38 86,196 236,303 442,316 94,6 165,-9 254,-53 27,-14 51,-23 53,-21 7,8 -110,64 -165,81 -35,10 -82,14 -137,12 -47,-1 -83,-1 -81,1 5,5 116,33 132,33 8,0 32,11 52,25 l 37,25 -120,-1 c -66,-1 -131,-4 -145,-6 z M 95,954 C 52,882 41,872 70,930 c 20,40 48,80 56,80 1,0 -13,-25 -31,-56 z"
           inkscape:connector-curvature="0" />
        <path
           id="path3919"
           d="m 660,1216 c 72,-21 122,-45 160,-75 51,-40 68,-48 42,-19 -31,34 -156,96 -207,103 l -40,5 z"
           inkscape:connector-curvature="0" />
        <path
           id="path3921"
           d="m 901,1071 c 7,-10 21,-24 33,-31 20,-12 20,-12 6,6 -35,45 -61,62 -39,25 z"
           inkscape:connector-curvature="0" />
        <path
           id="path3923"
           d="m 1080,579 c 0,-28 -91,-200 -125,-238 -21,-23 -36,-44 -33,-46 9,-9 144,148 164,190 19,40 21,105 3,105 -5,0 -9,-5 -9,-11 z"
           inkscape:connector-curvature="0" />
        <path
           id="path3925"
           d="M 976,495 C 942,429 842,331 772,296 635,227 458,224 308,289 c -77,33 -55,13 28,-26 135,-64 289,-57 437,19 88,46 186,143 219,216 28,63 18,60 -16,-3 z"
           inkscape:connector-curvature="0" />
        <path
           id="path3927"
           d="M 1010,314 C 923,226 877,200 814,202 c -56,2 -201,-29 -211,-45 -3,-5 -1,-7 5,-4 18,12 152,20 152,10 0,-13 -59,-40 -105,-49 -62,-11 -23,-28 67,-28 174,0 257,56 347,233 36,69 11,67 -59,-5 z"
           inkscape:connector-curvature="0" />
        <path
           id="path3929"
           d="m 380,168 c 53,-25 125,-34 160,-19 23,9 22,10 -15,11 -22,0 -67,7 -100,15 -83,20 -98,17 -45,-7 z"
           inkscape:connector-curvature="0" />
      </g>
      <g
         id="layer109"
         style="fill:#faf0cd;stroke:none">
        <path
           id="path3932"
           d="M 385,1265 C 271,1234 229,1211 163,1142 99,1074 58,1019 94,1049 c 14,12 12,2 -8,-43 -30,-68 -33,-80 -9,-46 35,52 96,121 116,132 14,7 6,-6 -19,-35 -22,-25 -53,-69 -67,-97 -30,-57 -31,-60 -19,-60 4,0 15,17 24,38 9,20 44,66 78,102 34,36 58,58 54,50 -4,-8 6,0 23,17 28,30 162,103 189,103 7,0 31,9 55,19 24,11 47,17 53,14 5,-3 6,-1 2,6 -4,6 -12,8 -18,5 -7,-4 -8,-2 -4,5 4,6 11,9 15,7 4,-3 13,-1 21,5 23,14 -138,10 -195,-6 z"
           inkscape:connector-curvature="0" />
        <path
           id="path3934"
           d="m 1046,473 c -18,-38 -18,-38 2,-20 11,10 22,27 25,38 9,32 -8,21 -27,-18 z"
           inkscape:connector-curvature="0" />
        <path
           id="path3936"
           d="m 845,344 c -74,-57 -78,-60 -40,-41 29,14 116,86 105,86 -3,0 -32,-20 -65,-45 z"
           inkscape:connector-curvature="0" />
        <path
           id="path3938"
           d="m 715,268 c -85,-33 -260,-35 -360,-3 -11,3 -8,-1 7,-10 36,-20 158,-36 228,-28 58,6 157,36 174,53 12,12 12,12 -49,-12 z"
           inkscape:connector-curvature="0" />
        <path
           id="path3940"
           d="m 957,255 c -21,-19 -43,-35 -50,-35 -7,0 -6,-4 3,-10 12,-8 12,-10 1,-10 -8,0 -12,-2 -10,-5 8,-7 49,7 44,15 -3,4 5,10 17,13 12,4 19,9 15,13 -4,4 0,16 10,26 30,33 8,28 -30,-7 z"
           inkscape:connector-curvature="0" />
        <path
           id="path3942"
           d="m 783,123 c -13,-2 -23,-8 -23,-13 0,-5 -8,-11 -17,-13 -10,-3 -2,-5 18,-6 41,-1 99,16 99,30 0,9 -36,10 -77,2 z"
           inkscape:connector-curvature="0" />
      </g>
    </g>
    <text
       xml:space="preserve"
       style="font-style:normal;font-variant:normal;font-weight:normal;font-stretch:normal;font-size:157.88861084px;line-height:1.25;font-family:'Futura Md BT';-inkscape-font-specification:'Futura Md BT';letter-spacing:0px;word-spacing:0px;fill:#000000;fill-opacity:1;stroke:none;stroke-width:0.82233649"
       x="1464.3317"
       y="86.972237"
       id="text4016"><tspan
         sodipodi:role="line"
         id="tspan4014"
         x="1464.3317"
         y="86.972237"
         style="font-size:328.93460083px;stroke-width:0.82233649">.</tspan></text>
  </g>
</svg>
